<?xml version="1.0" encoding="UTF-8" standalone="no"?>
<!-- Created with Inkscape (http://www.inkscape.org/) -->

<svg
   width="100"
   height="100"
   viewBox="0 0 26.458333 26.458333"
   version="1.1"
   id="svg1"
   inkscape:version="1.3.2 (091e20ef0f, 2023-11-25, custom)"
   sodipodi:docname="missing.svg"
   inkscape:export-filename="../assets/missing.png"
   inkscape:export-xdpi="96"
   inkscape:export-ydpi="96"
   xmlns:inkscape="http://www.inkscape.org/namespaces/inkscape"
   xmlns:sodipodi="http://sodipodi.sourceforge.net/DTD/sodipodi-0.dtd"
   xmlns="http://www.w3.org/2000/svg"
   xmlns:svg="http://www.w3.org/2000/svg">
  <sodipodi:namedview
     id="namedview1"
     pagecolor="#505050"
     bordercolor="#ffffff"
     borderopacity="1"
     inkscape:showpageshadow="0"
     inkscape:pageopacity="0"
     inkscape:pagecheckerboard="1"
     inkscape:deskcolor="#505050"
     inkscape:document-units="mm"
     showguides="true"
     inkscape:zoom="9.52"
     inkscape:cx="33.193277"
     inkscape:cy="29.831933"
     inkscape:window-width="2560"
     inkscape:window-height="1440"
     inkscape:window-x="0"
     inkscape:window-y="0"
     inkscape:window-maximized="0"
     inkscape:current-layer="layer2"
     inkscape:export-bgcolor="#04040400">
    <sodipodi:guide
       position="2.7800792,13.635927"
       orientation="1,0"
       id="guide1"
       inkscape:locked="false" />
  </sodipodi:namedview>
  <defs
     id="defs1" />
  <g
     inkscape:label="No"
     inkscape:groupmode="layer"
     id="layer1"
     style="display:none">
    <path
       id="path1"
       style="fill:#d40000;fill-opacity:1;stroke:#000000;stroke-width:0.264583;stroke-dasharray:none;stroke-opacity:1"
       d="M 13.229167,0.14676107 A 13.082394,13.082394 0 0 0 0.14676107,13.229167 13.082394,13.082394 0 0 0 13.229167,26.311572 13.082394,13.082394 0 0 0 26.311572,13.229167 13.082394,13.082394 0 0 0 13.229167,0.14676107 Z M 13.377478,2.9114502 A 10.465915,10.465915 0 0 1 19.63291,4.9888428 L 4.9945272,19.627226 A 10.465915,10.465915 0 0 1 2.9114502,13.377478 10.465915,10.465915 0 0 1 13.377478,2.9114502 Z m 8.127669,3.8783162 A 10.465915,10.465915 0 0 1 23.843506,13.377478 10.465915,10.465915 0 0 1 13.377478,23.843506 10.465915,10.465915 0 0 1 6.8073364,21.487577 Z"
       inkscape:export-filename="../assets/missing.png"
       inkscape:export-xdpi="96"
       inkscape:export-ydpi="96" />
  </g>
  <g
     inkscape:groupmode="layer"
     id="layer2"
     inkscape:label="Question Mark">
    <text
       xml:space="preserve"
       style="font-size:35.8514px;fill:#f9f9f9;stroke-width:2.98761"
       x="5.7003732"
       y="25.956413"
       id="text1"><tspan
         sodipodi:role="line"
         id="tspan1"
         style="fill:#ff0000;stroke-width:2.98761"
         x="5.7003732"
         y="25.956413">?</tspan></text>
  </g>
</svg>
